<mxfile host="app.diagrams.net" modified="2024-07-17T19:25:49.423Z" agent="Mozilla/5.0 (X11; Ubuntu; Linux x86_64; rv:127.0) Gecko/20100101 Firefox/127.0" etag="UUZacE6r5Coh_WqGLr20" version="24.6.5" type="github">
  <diagram name="Page-1" id="g8_5C552AOf9ox7kjyuf">
    <mxGraphModel dx="1605" dy="901" grid="1" gridSize="10" guides="1" tooltips="1" connect="1" arrows="1" fold="1" page="1" pageScale="1" pageWidth="850" pageHeight="1100" math="0" shadow="0">
      <root>
        <mxCell id="0" />
        <mxCell id="1" parent="0" />
        <mxCell id="Z5JG2wmT0hjeAX9fTmwI-8" value="" style="edgeStyle=orthogonalEdgeStyle;rounded=0;orthogonalLoop=1;jettySize=auto;html=1;" edge="1" parent="1" source="Z5JG2wmT0hjeAX9fTmwI-5" target="Z5JG2wmT0hjeAX9fTmwI-1">
          <mxGeometry relative="1" as="geometry" />
        </mxCell>
        <mxCell id="Z5JG2wmT0hjeAX9fTmwI-5" value="User" style="shape=umlActor;verticalLabelPosition=bottom;verticalAlign=top;html=1;outlineConnect=0;" vertex="1" parent="1">
          <mxGeometry x="50" y="390" width="30" height="60" as="geometry" />
        </mxCell>
        <mxCell id="Z5JG2wmT0hjeAX9fTmwI-21" value="" style="edgeStyle=orthogonalEdgeStyle;rounded=0;orthogonalLoop=1;jettySize=auto;html=1;entryX=0.001;entryY=0.407;entryDx=0;entryDy=0;exitX=0.25;exitY=0;exitDx=0;exitDy=0;entryPerimeter=0;" edge="1" parent="1" source="Z5JG2wmT0hjeAX9fTmwI-9" target="Z5JG2wmT0hjeAX9fTmwI-19">
          <mxGeometry relative="1" as="geometry">
            <mxPoint x="485" y="250" as="targetPoint" />
            <Array as="points">
              <mxPoint x="455" y="95" />
            </Array>
          </mxGeometry>
        </mxCell>
        <mxCell id="Z5JG2wmT0hjeAX9fTmwI-25" value="Authenticate" style="edgeLabel;html=1;align=center;verticalAlign=middle;resizable=0;points=[];" vertex="1" connectable="0" parent="Z5JG2wmT0hjeAX9fTmwI-21">
          <mxGeometry x="-0.126" y="-5" relative="1" as="geometry">
            <mxPoint as="offset" />
          </mxGeometry>
        </mxCell>
        <mxCell id="Z5JG2wmT0hjeAX9fTmwI-63" value="" style="edgeStyle=orthogonalEdgeStyle;rounded=0;orthogonalLoop=1;jettySize=auto;html=1;entryX=0;entryY=0.5;entryDx=0;entryDy=0;" edge="1" parent="1" source="Z5JG2wmT0hjeAX9fTmwI-9" target="Z5JG2wmT0hjeAX9fTmwI-61">
          <mxGeometry relative="1" as="geometry">
            <mxPoint x="625" y="420" as="targetPoint" />
          </mxGeometry>
        </mxCell>
        <mxCell id="Z5JG2wmT0hjeAX9fTmwI-9" value="" style="whiteSpace=wrap;html=1;rounded=0;" vertex="1" parent="1">
          <mxGeometry x="425" y="330" width="120" height="180" as="geometry" />
        </mxCell>
        <mxCell id="Z5JG2wmT0hjeAX9fTmwI-10" value="" style="edgeStyle=orthogonalEdgeStyle;rounded=0;orthogonalLoop=1;jettySize=auto;html=1;" edge="1" parent="1" source="Z5JG2wmT0hjeAX9fTmwI-1" target="Z5JG2wmT0hjeAX9fTmwI-9">
          <mxGeometry relative="1" as="geometry" />
        </mxCell>
        <mxCell id="Z5JG2wmT0hjeAX9fTmwI-16" value="&lt;b&gt;BFF&lt;/b&gt;" style="text;html=1;align=center;verticalAlign=middle;whiteSpace=wrap;rounded=0;" vertex="1" parent="1">
          <mxGeometry x="435" y="405" width="100" height="30" as="geometry" />
        </mxCell>
        <mxCell id="Z5JG2wmT0hjeAX9fTmwI-17" value="" style="group" vertex="1" connectable="0" parent="1">
          <mxGeometry x="160" y="208" width="100" height="402" as="geometry" />
        </mxCell>
        <mxCell id="Z5JG2wmT0hjeAX9fTmwI-1" value="" style="rounded=0;whiteSpace=wrap;html=1;" vertex="1" parent="Z5JG2wmT0hjeAX9fTmwI-17">
          <mxGeometry y="22" width="100" height="380" as="geometry" />
        </mxCell>
        <mxCell id="Z5JG2wmT0hjeAX9fTmwI-2" value="" style="html=1;verticalLabelPosition=bottom;align=center;labelBackgroundColor=#ffffff;verticalAlign=top;strokeWidth=2;strokeColor=#0080F0;shadow=0;dashed=0;shape=mxgraph.ios7.icons.smartphone;" vertex="1" parent="Z5JG2wmT0hjeAX9fTmwI-17">
          <mxGeometry x="21.5" y="62" width="57" height="110" as="geometry" />
        </mxCell>
        <mxCell id="Z5JG2wmT0hjeAX9fTmwI-4" value="" style="sketch=0;pointerEvents=1;shadow=0;dashed=0;html=1;strokeColor=none;fillColor=#434445;aspect=fixed;labelPosition=center;verticalLabelPosition=bottom;verticalAlign=top;align=center;outlineConnect=0;shape=mxgraph.vvd.web_browser;" vertex="1" parent="Z5JG2wmT0hjeAX9fTmwI-17">
          <mxGeometry x="7.740000000000009" y="282" width="84.51" height="60" as="geometry" />
        </mxCell>
        <mxCell id="Z5JG2wmT0hjeAX9fTmwI-6" value="&lt;b&gt;Device/Browser&lt;/b&gt;" style="text;html=1;align=center;verticalAlign=middle;whiteSpace=wrap;rounded=0;" vertex="1" parent="Z5JG2wmT0hjeAX9fTmwI-17">
          <mxGeometry width="100" height="30" as="geometry" />
        </mxCell>
        <mxCell id="Z5JG2wmT0hjeAX9fTmwI-24" value="" style="edgeStyle=orthogonalEdgeStyle;rounded=0;orthogonalLoop=1;jettySize=auto;html=1;entryX=0.75;entryY=0;entryDx=0;entryDy=0;" edge="1" parent="1" source="Z5JG2wmT0hjeAX9fTmwI-19" target="Z5JG2wmT0hjeAX9fTmwI-9">
          <mxGeometry relative="1" as="geometry">
            <mxPoint x="558.4999999999998" y="240" as="targetPoint" />
          </mxGeometry>
        </mxCell>
        <mxCell id="Z5JG2wmT0hjeAX9fTmwI-26" value="tokens and id" style="edgeLabel;html=1;align=center;verticalAlign=middle;resizable=0;points=[];" vertex="1" connectable="0" parent="Z5JG2wmT0hjeAX9fTmwI-24">
          <mxGeometry x="0.0842" y="-2" relative="1" as="geometry">
            <mxPoint y="-1" as="offset" />
          </mxGeometry>
        </mxCell>
        <mxCell id="Z5JG2wmT0hjeAX9fTmwI-36" value="" style="edgeStyle=orthogonalEdgeStyle;rounded=0;orthogonalLoop=1;jettySize=auto;html=1;entryX=0;entryY=0.5;entryDx=0;entryDy=0;exitX=1;exitY=0.25;exitDx=0;exitDy=0;" edge="1" parent="1" source="Z5JG2wmT0hjeAX9fTmwI-9" target="Z5JG2wmT0hjeAX9fTmwI-31">
          <mxGeometry relative="1" as="geometry">
            <mxPoint x="640" y="105" as="targetPoint" />
            <Array as="points">
              <mxPoint x="780" y="375" />
              <mxPoint x="780" y="225" />
            </Array>
          </mxGeometry>
        </mxCell>
        <mxCell id="Z5JG2wmT0hjeAX9fTmwI-19" value="&lt;div&gt;Authorization&amp;nbsp;&lt;/div&gt;&lt;div&gt;Server&lt;/div&gt;" style="rounded=0;whiteSpace=wrap;html=1;" vertex="1" parent="1">
          <mxGeometry x="471" y="50" width="89" height="110" as="geometry" />
        </mxCell>
        <mxCell id="Z5JG2wmT0hjeAX9fTmwI-27" value="" style="rounded=0;whiteSpace=wrap;html=1;" vertex="1" parent="1">
          <mxGeometry x="920" y="90" width="180" height="270" as="geometry" />
        </mxCell>
        <mxCell id="Z5JG2wmT0hjeAX9fTmwI-29" value="&lt;b&gt;MS 1&lt;br&gt;&lt;/b&gt;" style="text;html=1;align=center;verticalAlign=middle;whiteSpace=wrap;rounded=0;" vertex="1" parent="1">
          <mxGeometry x="930" y="30" width="100" height="30" as="geometry" />
        </mxCell>
        <mxCell id="Z5JG2wmT0hjeAX9fTmwI-33" value="" style="group" vertex="1" connectable="0" parent="1">
          <mxGeometry x="850" y="90" width="40" height="270" as="geometry" />
        </mxCell>
        <mxCell id="Z5JG2wmT0hjeAX9fTmwI-31" value="" style="rounded=0;whiteSpace=wrap;html=1;" vertex="1" parent="Z5JG2wmT0hjeAX9fTmwI-33">
          <mxGeometry width="40" height="270" as="geometry" />
        </mxCell>
        <mxCell id="Z5JG2wmT0hjeAX9fTmwI-32" value="JWT validation filter with public key" style="text;html=1;align=center;verticalAlign=middle;whiteSpace=wrap;rounded=0;rotation=-90;" vertex="1" parent="Z5JG2wmT0hjeAX9fTmwI-33">
          <mxGeometry x="-97.5" y="112.5" width="235" height="30" as="geometry" />
        </mxCell>
        <mxCell id="Z5JG2wmT0hjeAX9fTmwI-34" value="" style="edgeStyle=orthogonalEdgeStyle;rounded=0;orthogonalLoop=1;jettySize=auto;html=1;" edge="1" parent="1" source="Z5JG2wmT0hjeAX9fTmwI-31" target="Z5JG2wmT0hjeAX9fTmwI-27">
          <mxGeometry relative="1" as="geometry" />
        </mxCell>
        <mxCell id="Z5JG2wmT0hjeAX9fTmwI-37" value="API 1" style="rounded=0;whiteSpace=wrap;html=1;" vertex="1" parent="1">
          <mxGeometry x="950" y="160" width="120" height="40" as="geometry" />
        </mxCell>
        <mxCell id="Z5JG2wmT0hjeAX9fTmwI-38" value="API 2" style="rounded=0;whiteSpace=wrap;html=1;" vertex="1" parent="1">
          <mxGeometry x="950" y="220" width="120" height="40" as="geometry" />
        </mxCell>
        <mxCell id="Z5JG2wmT0hjeAX9fTmwI-39" value="API n" style="rounded=0;whiteSpace=wrap;html=1;" vertex="1" parent="1">
          <mxGeometry x="950" y="290" width="120" height="40" as="geometry" />
        </mxCell>
        <mxCell id="Z5JG2wmT0hjeAX9fTmwI-41" value="" style="rounded=0;whiteSpace=wrap;html=1;dashed=1;fillColor=none;" vertex="1" parent="1">
          <mxGeometry x="830" y="20" width="300" height="380" as="geometry" />
        </mxCell>
        <mxCell id="Z5JG2wmT0hjeAX9fTmwI-52" value="" style="rounded=0;whiteSpace=wrap;html=1;" vertex="1" parent="1">
          <mxGeometry x="920" y="530" width="180" height="270" as="geometry" />
        </mxCell>
        <mxCell id="Z5JG2wmT0hjeAX9fTmwI-53" value="&lt;b&gt;MS 2&lt;br&gt;&lt;/b&gt;" style="text;html=1;align=center;verticalAlign=middle;whiteSpace=wrap;rounded=0;" vertex="1" parent="1">
          <mxGeometry x="930" y="470" width="100" height="30" as="geometry" />
        </mxCell>
        <mxCell id="Z5JG2wmT0hjeAX9fTmwI-54" value="" style="group" vertex="1" connectable="0" parent="1">
          <mxGeometry x="850" y="530" width="40" height="270" as="geometry" />
        </mxCell>
        <mxCell id="Z5JG2wmT0hjeAX9fTmwI-55" value="" style="rounded=0;whiteSpace=wrap;html=1;" vertex="1" parent="Z5JG2wmT0hjeAX9fTmwI-54">
          <mxGeometry width="40" height="270" as="geometry" />
        </mxCell>
        <mxCell id="Z5JG2wmT0hjeAX9fTmwI-56" value="JWT validation filter with public key" style="text;html=1;align=center;verticalAlign=middle;whiteSpace=wrap;rounded=0;rotation=-90;" vertex="1" parent="Z5JG2wmT0hjeAX9fTmwI-54">
          <mxGeometry x="-97.5" y="112.5" width="235" height="30" as="geometry" />
        </mxCell>
        <mxCell id="Z5JG2wmT0hjeAX9fTmwI-57" value="" style="edgeStyle=orthogonalEdgeStyle;rounded=0;orthogonalLoop=1;jettySize=auto;html=1;" edge="1" source="Z5JG2wmT0hjeAX9fTmwI-55" target="Z5JG2wmT0hjeAX9fTmwI-52" parent="1">
          <mxGeometry relative="1" as="geometry" />
        </mxCell>
        <mxCell id="Z5JG2wmT0hjeAX9fTmwI-58" value="API 1" style="rounded=0;whiteSpace=wrap;html=1;" vertex="1" parent="1">
          <mxGeometry x="950" y="600" width="120" height="40" as="geometry" />
        </mxCell>
        <mxCell id="Z5JG2wmT0hjeAX9fTmwI-59" value="API 2" style="rounded=0;whiteSpace=wrap;html=1;" vertex="1" parent="1">
          <mxGeometry x="950" y="660" width="120" height="40" as="geometry" />
        </mxCell>
        <mxCell id="Z5JG2wmT0hjeAX9fTmwI-60" value="API n" style="rounded=0;whiteSpace=wrap;html=1;" vertex="1" parent="1">
          <mxGeometry x="950" y="730" width="120" height="40" as="geometry" />
        </mxCell>
        <mxCell id="Z5JG2wmT0hjeAX9fTmwI-61" value="" style="rounded=0;whiteSpace=wrap;html=1;dashed=1;fillColor=none;" vertex="1" parent="1">
          <mxGeometry x="830" y="460" width="300" height="380" as="geometry" />
        </mxCell>
        <mxCell id="Z5JG2wmT0hjeAX9fTmwI-64" value="" style="edgeStyle=orthogonalEdgeStyle;rounded=0;orthogonalLoop=1;jettySize=auto;html=1;entryX=0;entryY=0.5;entryDx=0;entryDy=0;exitX=1;exitY=0.25;exitDx=0;exitDy=0;endArrow=none;endFill=0;startArrow=classic;startFill=1;" edge="1" parent="1">
          <mxGeometry relative="1" as="geometry">
            <mxPoint x="554" y="387" as="sourcePoint" />
            <mxPoint x="859" y="237" as="targetPoint" />
            <Array as="points">
              <mxPoint x="789" y="387" />
              <mxPoint x="789" y="237" />
            </Array>
          </mxGeometry>
        </mxCell>
        <mxCell id="Z5JG2wmT0hjeAX9fTmwI-66" value="" style="edgeStyle=orthogonalEdgeStyle;rounded=0;orthogonalLoop=1;jettySize=auto;html=1;entryX=0;entryY=0.5;entryDx=0;entryDy=0;endArrow=none;endFill=0;startArrow=classic;startFill=1;" edge="1" parent="1">
          <mxGeometry relative="1" as="geometry">
            <mxPoint x="555" y="430" as="sourcePoint" />
            <mxPoint x="840" y="660" as="targetPoint" />
            <Array as="points">
              <mxPoint x="670" y="431" />
              <mxPoint x="670" y="660" />
            </Array>
          </mxGeometry>
        </mxCell>
        <mxCell id="Z5JG2wmT0hjeAX9fTmwI-67" value="" style="edgeStyle=orthogonalEdgeStyle;rounded=0;orthogonalLoop=1;jettySize=auto;html=1;endArrow=none;endFill=0;startArrow=classic;startFill=1;" edge="1" parent="1">
          <mxGeometry relative="1" as="geometry">
            <mxPoint x="262" y="430" as="sourcePoint" />
            <mxPoint x="427" y="430" as="targetPoint" />
          </mxGeometry>
        </mxCell>
      </root>
    </mxGraphModel>
  </diagram>
</mxfile>
